<svg xmlns="http://www.w3.org/2000/svg" width="1600" height="1200" viewBox="0 0 1600 1200" version="1.1"><path d="M 479.493 368.647 C 473.163 389.927, 471.597 393.598, 467.475 396.841 C 464.932 398.841, 456.953 401.703, 441.750 406.067 C 437.488 407.290, 434 408.576, 434 408.923 C 434 409.271, 440.515 411.521, 448.477 413.925 C 456.440 416.328, 464.319 419.124, 465.987 420.138 C 469.752 422.428, 472.379 426.658, 475.095 434.800 C 476.961 440.395, 477.069 441.793, 476.063 447.300 C 475.439 450.710, 474.661 459.800, 474.334 467.500 C 473.037 497.976, 479.241 526.580, 493.419 555.500 C 505.523 580.187, 517.715 596.511, 541.664 620.094 C 560.777 638.914, 565.817 646.680, 570.443 664.442 C 577.924 693.162, 571.291 734.735, 552.655 775.932 C 549.562 782.770, 547.201 788.535, 547.409 788.743 C 547.618 788.951, 551.979 785.606, 557.102 781.311 C 607.621 738.948, 629.429 689.512, 618.999 641 C 611.912 608.037, 591.264 578.808, 556.500 552.527 C 519.302 524.406, 496.178 491.210, 488.010 454.206 C 486.209 446.048, 486.212 445.795, 488.193 438.706 C 491.171 428.054, 494.633 422.229, 499.455 419.762 C 503.357 417.764, 521.073 411.994, 527.750 410.546 C 529.538 410.158, 531 409.512, 531 409.110 C 531 408.707, 528.638 407.776, 525.750 407.040 C 516.860 404.775, 502.689 399.891, 498.868 397.775 C 493.990 395.074, 491.927 391.030, 486.996 374.500 C 484.699 366.800, 482.664 360.341, 482.473 360.147 C 482.283 359.953, 480.942 363.778, 479.493 368.647 M 857.500 390.755 C 849.731 392.142, 846 396.752, 846 404.968 C 846 409.585, 846.400 410.600, 849.400 413.600 C 852.437 416.637, 853.383 417, 858.265 417 C 862.357 417, 864.423 416.455, 866.486 414.832 C 873.145 409.595, 873.727 398.168, 867.594 393.078 C 865.728 391.530, 860.240 390.267, 857.500 390.755 M 1026.368 394.571 C 1024.507 396.545, 1022.918 399.341, 1022.817 400.821 C 1022.026 412.404, 1025.748 417, 1035.917 417 C 1040.285 417, 1041.371 416.562, 1044.321 413.612 C 1048.213 409.720, 1049.506 404.417, 1047.943 398.757 C 1046.414 393.218, 1042.923 391, 1035.733 391 C 1030.152 391, 1029.503 391.248, 1026.368 394.571 M 994 394.930 C 986.500 395.500, 986.500 395.500, 986.222 409.250 C 985.944 423, 985.944 423, 979.947 423 C 968.276 423, 957.702 428.937, 952.937 438.167 C 946.245 451.128, 949.743 474.126, 959.543 481.601 C 963.131 484.337, 970.141 487, 973.758 487 C 976.525 487, 982.083 483.981, 986.104 480.294 C 988.708 477.906, 988.708 477.906, 990.408 480.500 C 994.247 486.359, 1001.394 488.317, 1009 485.595 C 1013.253 484.073, 1014.802 481.168, 1015.199 473.971 C 1015.481 468.852, 1015.345 468.478, 1013.092 468.160 C 1010.684 467.820, 1010.684 467.820, 1011.288 430.910 C 1011.966 389.379, 1013.906 393.418, 994 394.930 M 1077 423.094 C 1069.166 424.618, 1060 428.262, 1060 429.853 C 1060 433.187, 1062.314 444.585, 1063.221 445.720 C 1063.971 446.660, 1065.152 446.448, 1068.348 444.800 C 1074.903 441.420, 1082.881 439.835, 1085.953 441.302 C 1087.354 441.971, 1088.638 443.486, 1088.807 444.667 C 1089.154 447.087, 1088.630 447.257, 1075.537 448.987 C 1061.239 450.876, 1056 455.461, 1056 466.083 C 1056 472.965, 1057.189 476.495, 1060.814 480.376 C 1068.603 488.716, 1079.875 488.959, 1087.544 480.954 C 1090.985 477.363, 1091.373 477.329, 1092.819 480.502 C 1094.221 483.579, 1099.608 486.991, 1103.072 486.996 C 1104.486 486.998, 1107.751 486.282, 1110.327 485.404 C 1115.541 483.628, 1116.137 482.475, 1116.364 473.727 C 1116.488 468.960, 1116.294 468.471, 1114.159 468.168 C 1111.817 467.837, 1111.817 467.837, 1112.529 453.084 C 1113.182 439.528, 1113.075 437.959, 1111.208 433.738 C 1106.949 424.109, 1093.422 419.900, 1077 423.094 M 868 423.680 C 866.625 423.803, 861.181 424.188, 855.902 424.534 C 846.305 425.164, 846.305 425.164, 846.375 455.582 C 846.445 486, 846.445 486, 858.973 486 C 871.500 486, 871.500 486, 871.500 455.084 C 871.500 438.080, 871.275 424.007, 871 423.812 C 870.725 423.616, 869.375 423.557, 868 423.680 M 895.001 424.139 C 889.226 424.612, 884.147 425.118, 883.714 425.262 C 883.281 425.406, 882.830 439.132, 882.713 455.763 C 882.500 486.001, 882.500 486.001, 895.408 486 C 908.316 486, 908.316 486, 907.654 466.204 C 907.158 451.355, 907.294 446.106, 908.196 445.204 C 909.869 443.531, 915.503 443.696, 916.966 445.459 C 918.270 447.030, 918.527 469.583, 917.364 480.280 C 916.735 486.060, 916.735 486.060, 929.969 485.780 C 943.203 485.500, 943.203 485.500, 943.054 460.605 C 942.898 434.460, 942.454 431.439, 938.204 427.655 C 935.477 425.226, 929.366 423.096, 925 423.053 C 921.433 423.018, 912.596 427.373, 910.078 430.406 C 907.878 433.057, 907 432.229, 907 427.500 C 907 425.025, 906.663 423.063, 906.250 423.139 C 905.837 423.216, 900.775 423.666, 895.001 424.139 M 1044.500 423.592 C 1043.400 423.761, 1038.114 424.188, 1032.754 424.542 C 1023.008 425.186, 1023.008 425.186, 1022.947 452.843 C 1022.914 468.054, 1022.800 481.625, 1022.693 483 C 1022.500 485.500, 1022.500 485.500, 1035.500 485.777 C 1048.500 486.054, 1048.500 486.054, 1048.421 454.834 C 1048.374 436.669, 1047.956 423.545, 1047.421 423.450 C 1046.914 423.360, 1045.600 423.424, 1044.500 423.592 M 1145.500 423.648 C 1144.400 423.786, 1139.225 424.180, 1134 424.524 C 1124.500 425.149, 1124.500 425.149, 1124.500 455.575 C 1124.500 486, 1124.500 486, 1137.387 486 C 1150.274 486, 1150.274 486, 1149.544 465.866 C 1148.743 443.752, 1148.674 444.044, 1154.715 444.015 C 1159.975 443.990, 1160.381 445.880, 1159.700 467.214 C 1159.100 486, 1159.100 486, 1172.050 486 C 1185 486, 1185 486, 1184.998 460.750 C 1184.997 438.707, 1184.775 435.058, 1183.248 432.020 C 1181.026 427.596, 1176.084 424.285, 1170.440 423.439 C 1164.592 422.562, 1162.340 423.233, 1155.366 427.932 C 1149.500 431.884, 1149.500 431.884, 1149.183 428.192 C 1148.820 423.963, 1148.283 423.300, 1145.500 423.648 M 976.445 442.464 C 973.871 445.038, 973.776 445.504, 974.194 453.469 C 974.714 463.380, 976.522 467, 980.952 467 C 986.489 467, 987.234 465.049, 986.451 452.604 C 986.066 446.497, 985.662 441.392, 985.553 441.260 C 985.444 441.129, 983.954 440.741, 982.243 440.399 C 979.721 439.894, 978.624 440.285, 976.445 442.464 M 576.251 456.545 C 546.548 464.543, 534.409 498.317, 552.435 522.804 C 567.660 543.486, 597.768 545.757, 616.200 527.614 C 622.780 521.137, 627.820 510.737, 628.641 501.937 C 631.351 472.926, 603.862 449.110, 576.251 456.545 M 1084.500 459.738 C 1080.427 460.334, 1078.841 461.852, 1079.199 464.814 C 1079.614 468.240, 1082.180 469.673, 1085.697 468.443 C 1088.089 467.607, 1088.545 466.842, 1088.807 463.231 C 1088.977 460.904, 1088.752 459.067, 1088.307 459.150 C 1087.863 459.232, 1086.150 459.497, 1084.500 459.738 M 902.235 546.423 C 898.638 549.720, 898.500 550.093, 898.500 556.505 C 898.500 562.762, 898.697 563.340, 901.766 566.082 C 904.521 568.544, 905.877 569, 910.439 569 C 914.736 569, 916.452 568.491, 918.794 566.520 C 925.169 561.155, 925.807 550.897, 920.083 545.782 C 917.477 543.454, 916.071 543, 911.470 543 C 906.603 543, 905.541 543.393, 902.235 546.423 M 992 572.702 C 984.773 575.927, 978.764 577.014, 974.508 575.865 C 968.690 574.294, 957.108 574.534, 950.888 576.355 C 934.058 581.280, 928.354 600.220, 940.358 611.323 C 943.955 614.651, 944.272 615.269, 942.798 616.093 C 938.482 618.509, 935 622.324, 935 624.639 C 935 628.053, 937.423 632.398, 940.722 634.897 C 943.210 636.782, 943.323 637.108, 941.803 638.021 C 937.050 640.876, 934 644.328, 934 646.854 C 934 651.562, 937.319 656.158, 943.078 659.425 C 948.364 662.423, 948.827 662.500, 961.500 662.500 C 973.034 662.500, 975.091 662.233, 979.742 660.130 C 994.420 653.495, 998.813 635.962, 987.856 627.748 C 983.558 624.526, 981.977 624.075, 968.131 622.120 C 961.086 621.125, 956.498 620.018, 956.245 619.250 C 955.947 618.345, 957.455 618, 961.707 618 C 980.422 618, 992.576 608.632, 991.814 594.794 C 991.500 589.087, 991.500 589.087, 995 588.794 C 998.500 588.500, 998.500 588.500, 998.500 580.014 C 998.500 570.494, 998.059 569.998, 992 572.702 M 864 574.980 C 851.049 577.235, 843 585.599, 843 596.801 C 843 605.031, 847.965 610.457, 860.097 615.486 C 866.910 618.310, 869 619.625, 869 621.088 C 869 624.773, 858.683 622.683, 850.630 617.367 C 847.318 615.181, 846.558 615.014, 845.363 616.208 C 844.095 617.476, 840.598 634.931, 841.442 635.776 C 842.760 637.093, 854.992 638.935, 862.624 638.964 C 880.897 639.036, 891.026 631.473, 890.984 617.790 C 890.952 607.733, 887.592 604.325, 869.997 596.500 C 865.216 594.374, 864.059 591.705, 867.694 591.188 C 869.490 590.932, 874.301 592.563, 883.500 596.546 C 885.706 597.501, 887.338 594.880, 888.600 588.356 C 890.725 577.374, 890.757 577.476, 884.750 576.226 C 876.821 574.576, 869.012 574.107, 864 574.980 M 1037.500 576.867 C 1035.300 577.870, 1032.085 579.885, 1030.356 581.345 C 1028.626 582.805, 1026.939 584, 1026.606 584 C 1026.273 584, 1026 582.200, 1026 580 C 1026 576, 1026 576, 1019.250 576.099 C 1015.538 576.153, 1010.111 576.491, 1007.191 576.849 C 1001.882 577.500, 1001.882 577.500, 1001.691 607.750 C 1001.500 638, 1001.500 638, 1014.407 638 C 1027.314 638, 1027.314 638, 1026.635 618.379 C 1026.144 604.218, 1026.274 598.375, 1027.100 597.379 C 1028.613 595.557, 1034.433 595.612, 1035.970 597.463 C 1037.285 599.049, 1037.523 619.008, 1036.372 631.280 C 1035.736 638.060, 1035.736 638.060, 1048.937 637.780 C 1062.138 637.500, 1062.138 637.500, 1062.037 612.641 C 1061.930 586.486, 1061.489 583.470, 1057.204 579.655 C 1054.590 577.326, 1048.411 575.094, 1044.500 575.066 C 1042.850 575.054, 1039.700 575.864, 1037.500 576.867 M 903.463 576.730 C 898.425 577.090, 898.425 577.090, 898.463 607.545 C 898.500 638, 898.500 638, 911.042 638 C 923.583 638, 923.583 638, 923.662 607 C 923.740 576, 923.740 576, 916.120 576.185 C 911.929 576.287, 906.233 576.532, 903.463 576.730 M 960 590.870 C 957.941 591.454, 957.454 592.279, 957.239 595.540 C 956.881 600.979, 957.999 602.273, 963.057 602.273 C 967.876 602.273, 970 600.333, 970 595.931 C 970 591.677, 965.385 589.341, 960 590.870 M 954.892 641.202 C 952.504 645.663, 956.458 649, 964.131 649 C 969.042 649, 972 647.529, 972 645.087 C 972 642.241, 970.045 641.224, 962.683 640.237 C 956.539 639.414, 955.800 639.505, 954.892 641.202 M 858.500 698.687 C 855.200 698.856, 851.069 699.236, 849.320 699.530 C 846.141 700.064, 846.141 700.064, 846.320 745.032 C 846.500 789.999, 846.500 789.999, 859 789.999 C 871.500 789.999, 871.500 789.999, 871.693 743.999 C 871.885 698, 871.885 698, 868.193 698.189 C 866.162 698.293, 861.800 698.517, 858.500 698.687 M 1071 726.156 C 1063.339 728.820, 1062.058 729, 1058.015 727.982 C 1053.103 726.745, 1040.777 726.532, 1036.318 727.607 C 1031.077 728.870, 1024.137 732.954, 1021.617 736.257 C 1018.629 740.175, 1016.782 747.576, 1017.643 752.181 C 1018.556 757.069, 1022.002 762.805, 1025.266 764.871 C 1028.131 766.685, 1028.131 766.685, 1022.995 770.593 C 1018.705 773.856, 1017.941 774.912, 1018.357 777 C 1019.378 782.129, 1021.034 785.050, 1023.913 786.801 C 1026.877 788.603, 1026.877 788.603, 1021.938 792.857 C 1016.711 797.360, 1016.077 799.325, 1018.405 803.800 C 1021.694 810.122, 1028.303 813.834, 1038.140 814.885 C 1060.486 817.272, 1077 807.801, 1077 792.597 C 1077 781.211, 1070.455 776.197, 1053.385 774.506 C 1045.158 773.692, 1039 772.234, 1039 771.100 C 1039 770.648, 1042.938 770.052, 1047.750 769.776 C 1058.595 769.156, 1065.704 766.332, 1070.484 760.747 C 1074.157 756.457, 1076.142 749.676, 1075.296 744.317 C 1074.810 741.242, 1074.924 741.122, 1078.646 740.817 C 1082.500 740.500, 1082.500 740.500, 1082.500 732.014 C 1082.500 725.210, 1082.203 723.495, 1081 723.363 C 1080.175 723.273, 1075.675 724.530, 1071 726.156 M 1207.024 726.225 C 1199.501 728.849, 1198.117 729.052, 1194.704 728.029 C 1189.248 726.395, 1176.440 726.653, 1170.190 728.524 C 1164.118 730.341, 1157.371 735.884, 1155.347 740.718 C 1153.580 744.938, 1153.631 752.873, 1155.453 757.233 C 1156.252 759.145, 1158.469 762.083, 1160.380 763.760 C 1163.854 766.810, 1163.854 766.810, 1159.027 770.881 C 1154.347 774.827, 1154.225 775.066, 1155.047 778.725 C 1155.561 781.017, 1157.244 783.740, 1159.329 785.655 C 1162.764 788.811, 1162.764 788.811, 1157.849 793.155 C 1152.996 797.445, 1152.947 797.547, 1154.005 801.219 C 1156.733 810.684, 1165.382 815.142, 1180.962 815.112 C 1203.486 815.070, 1214.340 805.862, 1213.175 787.783 C 1212.912 783.701, 1206.964 778.331, 1200.742 776.557 C 1197.859 775.735, 1191.450 774.576, 1186.500 773.980 C 1181.308 773.356, 1176.880 772.284, 1176.036 771.449 C 1174.756 770.182, 1175.389 770, 1181.076 770 C 1195.273 770, 1205.169 765.225, 1209.644 756.214 C 1211.803 751.869, 1212.167 750.054, 1211.689 746.021 C 1211.108 741.114, 1211.108 741.114, 1214.804 740.807 C 1218.500 740.500, 1218.500 740.500, 1218.500 732.014 C 1218.500 725.194, 1218.205 723.502, 1217 723.398 C 1216.175 723.328, 1211.686 724.600, 1207.024 726.225 M 899.427 727.465 C 895.537 728.172, 890.199 729.703, 887.565 730.868 C 882.995 732.890, 882.802 733.137, 883.361 736.244 C 883.683 738.035, 884.245 741.525, 884.610 744 C 885.617 750.837, 886.286 751.216, 892.396 748.419 C 903 743.565, 911.086 743.677, 911.808 748.689 C 912.173 751.220, 911.601 751.426, 899.753 753.025 C 889.003 754.476, 883.123 757.254, 880.752 762 C 878.786 765.934, 878.438 774.382, 880.064 778.685 C 882.533 785.221, 891.018 790.936, 898.316 790.978 C 902.748 791.004, 905.025 789.946, 910.417 785.356 C 914.335 782.022, 914.335 782.022, 916.082 784.894 C 919.821 791.043, 925.986 792.590, 933.989 789.388 C 938.164 787.717, 938.318 787.441, 939.883 778.763 C 940.772 773.832, 939.743 771.607, 936.855 772.215 C 935.749 772.448, 935.568 769.723, 935.870 757.415 C 936.198 744.023, 936.016 741.824, 934.246 737.823 C 931.805 732.305, 928.050 729.509, 920.413 727.519 C 913.546 725.731, 909.040 725.719, 899.427 727.465 M 1243.466 727.067 C 1225.158 730.174, 1215.391 744.817, 1218.154 765.017 C 1220.730 783.853, 1235.875 793.347, 1259.336 790.833 C 1271.001 789.583, 1271.316 789.358, 1273.306 780.854 C 1274.252 776.809, 1275.020 772.712, 1275.013 771.750 C 1274.997 769.631, 1273.917 769.609, 1263.181 771.508 C 1253.024 773.305, 1247.615 772.397, 1244.079 768.303 C 1241.659 765.500, 1241.659 765.500, 1257.789 765 C 1277.019 764.404, 1276.922 764.462, 1276.963 753.500 C 1276.998 744.008, 1275.577 739.582, 1270.847 734.450 C 1264.994 728.100, 1254.326 725.224, 1243.466 727.067 M 983.500 728.812 C 981.300 729.845, 978.085 731.885, 976.356 733.345 C 974.626 734.805, 972.939 736, 972.606 736 C 972.273 736, 972 734.200, 972 732 C 972 728, 972 728, 967.750 728.006 C 965.413 728.009, 959.900 728.292, 955.500 728.635 C 947.500 729.258, 947.500 729.258, 947.500 759.629 C 947.500 790, 947.500 790, 960.401 790 C 973.302 790, 973.302 790, 972.601 770.062 C 971.924 750.825, 971.969 750.087, 973.884 749.062 C 974.975 748.478, 977.007 748, 978.399 748 C 982.849 748, 983.335 750.591, 982.751 771.199 C 982.219 790, 982.219 790, 995.156 790 C 1008.093 790, 1008.093 790, 1007.797 763.571 C 1007.517 738.699, 1007.378 736.976, 1005.435 734.321 C 1000.935 728.172, 990.464 725.542, 983.500 728.812 M 1089.827 728.737 C 1084.155 729.095, 1084.155 729.095, 1084.681 753.798 C 1085.276 781.711, 1085.771 783.857, 1092.496 787.660 C 1101.088 792.519, 1108.385 791.373, 1116.506 783.888 C 1120.876 779.860, 1120.876 779.860, 1122.402 782.811 C 1126.208 790.171, 1132.737 792.553, 1141 789.595 C 1145.253 788.073, 1146.802 785.168, 1147.199 777.971 C 1147.480 772.855, 1147.344 772.478, 1145.098 772.161 C 1142.697 771.821, 1142.697 771.821, 1143.391 749.911 C 1144.177 725.074, 1145.799 727.210, 1127.250 728.654 C 1119 729.296, 1119 729.296, 1119 748.613 C 1119 766.687, 1118.876 767.996, 1117.066 768.965 C 1114.318 770.435, 1113.269 770.269, 1111 768 C 1109.140 766.140, 1109 764.667, 1109 747 C 1109 725.937, 1110.563 727.426, 1089.827 728.737 M 1044.500 742.806 C 1041.223 743.477, 1040 745.051, 1040 748.599 C 1040 754.316, 1046.930 756.793, 1051.744 752.797 C 1053.367 751.450, 1053.371 745.535, 1051.750 744.267 C 1050.056 742.941, 1046.923 742.310, 1044.500 742.806 M 1180.522 742.954 C 1174.602 744.064, 1174.886 753.157, 1180.881 754.474 C 1186.382 755.682, 1190.487 751.466, 1189.047 746.085 C 1188.299 743.286, 1185.071 742.101, 1180.522 742.954 M 1247.357 744.058 C 1245.116 744.893, 1242 748.661, 1242 750.536 C 1242 751.552, 1253.811 751.391, 1254.936 750.361 C 1255.176 750.141, 1254.951 748.781, 1254.436 747.340 C 1253.346 744.287, 1250.404 742.924, 1247.357 744.058 M 907.966 764.034 C 903.222 764.814, 902 765.699, 902 768.359 C 902 771.314, 903.809 773.004, 906.950 772.985 C 911.056 772.960, 912.161 771.687, 911.815 767.378 C 911.502 763.485, 911.472 763.458, 907.966 764.034 M 1038.750 792.558 C 1037.243 794.116, 1038.058 797.927, 1040.223 799.443 C 1041.545 800.370, 1044.559 801, 1047.666 801 C 1051.847 801, 1053.181 800.579, 1054.368 798.885 C 1056.055 796.476, 1055.608 794.447, 1053.185 793.517 C 1050.410 792.453, 1039.550 791.731, 1038.750 792.558 M 1174.750 792.558 C 1173.243 794.116, 1174.058 797.927, 1176.223 799.443 C 1179.208 801.534, 1188.332 801.525, 1190.429 799.429 C 1192.564 797.294, 1192.403 795.286, 1189.994 793.997 C 1187.447 792.634, 1175.746 791.529, 1174.750 792.558" stroke="none" fill="#333333" fill-rule="evenodd"/><path d="M 400.500 502.158 C 380.150 510.970, 363.358 518.319, 363.185 518.489 C 363.011 518.659, 364.197 521.431, 365.820 524.649 C 375.792 544.419, 384.838 584.097, 389.953 630.500 C 393.851 665.862, 396.992 716.345, 397.009 743.897 C 397.013 751.928, 397.297 760.825, 397.638 763.667 C 398.259 768.834, 398.259 768.834, 404.379 769.490 C 449.508 774.332, 501.257 794.108, 545 823.228 C 554.674 829.668, 555.673 830.111, 557.703 828.859 C 558.915 828.111, 565.440 823.930, 572.203 819.566 C 613.260 793.074, 663.252 774.123, 704 769.604 C 714.500 768.440, 714.500 768.440, 715.132 739.970 C 717.311 641.838, 728.409 564.121, 745.677 526.074 C 747.530 521.989, 748.699 518.338, 748.274 517.960 C 747.289 517.086, 673.737 485.920, 673.444 486.252 C 673.324 486.389, 672.048 493.025, 670.607 501 C 663.598 539.811, 658.383 580.028, 653.946 629.500 C 652.529 645.298, 651.644 723.362, 652.718 737.866 C 653.445 747.687, 653.351 749.293, 652.030 749.683 C 651.188 749.931, 646.390 751.699, 641.367 753.612 C 604.297 767.728, 572.603 794.400, 559.186 822.770 C 556.288 828.898, 556.288 828.898, 552.508 821.452 C 537.252 791.394, 507.483 767.073, 467.238 751.786 C 458.760 748.565, 458.760 748.565, 459.363 740.533 C 463.674 683.103, 457.766 596.094, 443.969 513.805 C 440.364 492.300, 439.041 485.979, 438.167 486.068 C 437.800 486.106, 420.850 493.346, 400.500 502.158 M 338.260 592.334 C 323.913 604.263, 320.108 607.927, 320.429 609.500 C 320.654 610.600, 322.937 616.868, 325.503 623.429 C 340.407 661.539, 349.647 730.467, 347.549 787.887 C 346.877 806.275, 346.877 806.275, 350.189 805.590 C 357.960 803.984, 392.999 803.082, 409 804.076 C 453.992 806.873, 501.829 817.876, 540 834.209 C 546.325 836.916, 552.175 839.392, 553 839.712 C 556.606 841.113, 545.695 831.249, 537.511 825.711 C 505.944 804.347, 435.602 783.209, 394.259 782.662 C 382.018 782.500, 382.018 782.500, 382.009 758.330 C 381.996 722.748, 379.312 689.416, 373.368 651 C 368.366 618.672, 359.460 576.941, 357.594 577.084 C 356.992 577.130, 348.292 583.992, 338.260 592.334 M 753.637 577.778 C 752.476 579.656, 743.735 621.331, 740.587 640 C 732.834 685.966, 730.581 710.740, 730.536 750.500 C 730.500 782.500, 730.500 782.500, 723.764 782.168 C 720.059 781.986, 711.110 782.558, 703.879 783.440 C 659.969 788.793, 607.872 805.145, 578.832 822.687 C 571.086 827.366, 559 837.313, 559 839.009 C 559 839.472, 563.163 838.044, 568.250 835.837 C 621.182 812.869, 683.553 801.301, 739.930 803.997 C 750.953 804.524, 761.103 805.239, 762.486 805.586 C 765 806.217, 765 806.217, 765 774.308 C 765 756.759, 765.464 736.347, 766.031 728.950 C 769.334 685.837, 777.050 647.503, 787.968 619.960 C 790.225 614.267, 791.943 609.071, 791.786 608.415 C 791.509 607.259, 755.750 577, 754.660 577 C 754.362 577, 753.902 577.350, 753.637 577.778" stroke="none" fill="#046bac" fill-rule="evenodd"/></svg>